2017-02-27 15:09:24
running
2017-02-27 15:11:21
{'/Volumes/G-SPEED Q/Titan-HD/HM/IncomingSC/S2016_001_AEWVJA_003_BTS_003': ['01217001.MOV', '01218001.MOV', '01219001.MOV', '01220001.MOV', '01221001.MOV', '01222001.MOV', '01223001.MOV', '01224001.MOV', '01225001.MOV', '01226001.MOV', '01227001.MOV', '01228001.MOV', '01229001.MOV', '01230001.MOV', '01231001.MOV', '01232001.MOV', '01233001.MOV', '01234001.MOV', '01235001.MOV', '01236001.MOV', '01237001.MOV', '01238001.MOV', '01239001.MOV', '01240001.MOV', '01241001.MOV', '01242001.MOV', '01243001.MOV', '01244001.MOV', '01245001.MOV', '01246001.MOV', '01247001.MOV', '01248001.MOV', '01249001.MOV', '01250001.MOV', '01251001.MOV', '01252001.MOV', '01253001.MOV', '01254001.MOV', '01255001.MOV', '01256001.MOV', '01257001.MOV', '01258001.MOV', '01259001.MOV', '01260001.MOV', '01261001.MOV', '01262001.MOV', '01263001.MOV', '01264001.MOV', '01265001.MOV', '01266001.MOV', '01267001.MOV', '01268001.MOV', '01269001.MOV'], '/Volumes/G-SPEED Q/Titan-HD/HM/IncomingSC/S2016_001_AEWVJA_003_BTS_002': ['S2016_001_AEWVJA_003_BTS_002.mov']}
ffmpeg version 3.1.1 Copyright (c) 2000-2016 the FFmpeg developers
  built with Apple LLVM version 7.3.0 (clang-703.0.31)
  configuration: --prefix=/usr/local/Cellar/ffmpeg/3.1.1 --enable-shared --enable-pthreads --enable-gpl --enable-version3 --enable-hardcoded-tables --enable-avresample --cc=clang --host-cflags= --host-ldflags= --enable-opencl --enable-libx264 --enable-libmp3lame --enable-libxvid --enable-libfreetype --enable-libvorbis --enable-libvpx --enable-libass --enable-ffplay --enable-libfdk-aac --enable-libopus --enable-libx265 --disable-lzma --enable-nonfree --enable-vda
  libavutil      55. 28.100 / 55. 28.100
  libavcodec     57. 48.101 / 57. 48.101
  libavformat    57. 41.100 / 57. 41.100
  libavdevice    57.  0.101 / 57.  0.101
  libavfilter     6. 47.100 /  6. 47.100
  libavresample   3.  0.  0 /  3.  0.  0
  libswscale      4.  1.100 /  4.  1.100
  libswresample   2.  1.100 /  2.  1.100
  libpostproc    54.  0.100 / 54.  0.100
Guessed Channel Layout for Input Stream #0.1 : mono
Guessed Channel Layout for Input Stream #0.2 : mono
Input #0, mov,mp4,m4a,3gp,3g2,mj2, from 'S2016_001_AEWVJA_003_BTS_002.mov':
  Metadata:
    major_brand     : qt  
    minor_version   : 512
    compatible_brands: qt  
    encoder         : Lavf57.41.100
  Duration: 01:57:03.52, start: 0.000000, bitrate: 52318 kb/s
    Stream #0:0(eng): Video: mpeg2video (4:2:2) (xd5b / 0x62356478), yuv422p(tv), 1920x1080 [SAR 1:1 DAR 16:9], 50003 kb/s, 29.97 fps, 29.97 tbr, 11988 tbn, 59.94 tbc (default)
    Metadata:
      handler_name    : DataHandler
      encoder         : 1080i5994 50 Mbit 4:2:2 LG
    Stream #0:1(eng): Audio: pcm_s24be (in24 / 0x34326E69), 48000 Hz, 1 channels, s32 (24 bit), 1152 kb/s (default)
    Metadata:
      handler_name    : DataHandler
    Stream #0:2(eng): Audio: pcm_s24be (in24 / 0x34326E69), 48000 Hz, 1 channels, s32 (24 bit), 1152 kb/s
    Metadata:
      handler_name    : DataHandler
Input #1, png_pipe, from '/Volumes/G-SPEED Q/Titan-HD/HM/Watermark/Video WaterMark_White.png':
  Duration: N/A, bitrate: N/A
    Stream #1:0: Video: png, rgba(pc), 319x180 [SAR 2835:2835 DAR 319:180], 25 tbr, 25 tbn, 25 tbc
File 'S2016_001_AEWVJA_003_BTS_002.flv' already exists. Overwrite ? [y/N] 